# xmcd
#
# Track frame offsets:
#   150
#   16171
#   32859
#   43417
#   55687
#   71606
#   86661
#   101570
#   120335
#   135377
#   152050
#   168367
#   181256
#   199233
#   216781
#   244632
#
# Disc length: 4440 seconds
#
# Revision: 0
# Processed by: cddbd v1.5.1PL2 Copyright (c) Steve Scherf et al.
# Submitted via: uFREEDB ActiveX Control 1.5
#
DISCID=d4115610
DTITLE=Di Paulo and Paulino - Ao vivo 2005
DYEAR=2005
DGENRE=Sertanejo
TTITLE0=Tô indo embora
TTITLE1=Vivendo longe do meu bem/As andorinhas
TTITLE2=Avião das nove
TTITLE3=Me telefone mais
TTITLE4=Música da saudade/Barra pesada
TTITLE5=Como eu chorei
TTITLE6=São tantas coisas
TTITLE7=O que tem a rosa/Cai sereno/Tchau amor
TTITLE8=Roupa de lua de mel
TTITLE9=O coração chora
TTITLE10=Na mudou
TTITLE11=Espinho na cama
TTITLE12=O que eu sou sem você
TTITLE13=Caminheiro
TTITLE14=Amor de primavera
TTITLE15=Outra
EXTD=
EXTT0=
EXTT1=
EXTT2=
EXTT3=
EXTT4=
EXTT5=
EXTT6=
EXTT7=
EXTT8=
EXTT9=
EXTT10=
EXTT11=
EXTT12=
EXTT13=
EXTT14=
EXTT15=
PLAYORDER=
